# xmcd
#
# Track frame offsets:
#	150
#	28483
#	83896
#	162249
#	223048
#	248133
#	284912
#	323842
#
# Disc length: 4664 seconds
#
# Revision: 0
# Processed by: cddbd v1.5.2PL0 Copyright (c) Steve Scherf et al.
# Submitted via: audiograbber 1.83.01
#
DISCID=79123608
DTITLE=Grateful Dead - 93-08-26 Shoreline Amphitheatre, Mountain View CA
DYEAR=1900
DGENRE=
TTITLE0=Way To Go Home
TTITLE1=He's Gone
TTITLE2=Drums
TTITLE3=Jam
TTITLE4=The Other One
TTITLE5=Stella Blue
TTITLE6=Around and Around
TTITLE7=Rain
EXTD=
EXTT0=
EXTT1=
EXTT2=
EXTT3=
EXTT4=
EXTT5=
EXTT6=
EXTT7=
PLAYORDER=
